<?xml version="1.0" encoding="utf-8"?>
<!-- Generator: Adobe Illustrator 24.0.2, SVG Export Plug-In . SVG Version: 6.00 Build 0)  -->
<svg version="1.1" id="Layer_1" xmlns="http://www.w3.org/2000/svg" xmlns:xlink="http://www.w3.org/1999/xlink" x="0px" y="0px"
	 viewBox="0 0 2000 2000" style="enable-background:new 0 0 2000 2000;" xml:space="preserve">
<style type="text/css">
	.st0{fill:#467082;}
</style>
<g>
	<path class="st0" d="M512.96,624.44v57.94h972.08v-57.94c0-2.44-0.92-4.69-2.45-6.45h2.45c0,0-0.36-0.17-0.79-0.37
		c-0.44-0.2-5.21-2.41-10.61-4.91l-148.88-68.89c-5.4-2.5-14.23-6.59-19.63-9.08l-296.31-137.11c-5.4-2.5-14.23-2.5-19.63,0
		L692.87,534.74c-5.4,2.5-14.23,6.59-19.63,9.08l-148.88,68.89c-5.4,2.5-10.17,4.71-10.61,4.91c-0.44,0.2-0.79,0.37-0.79,0.37h2.46
		C513.88,619.76,512.96,622,512.96,624.44z"/>
	<path class="st0" d="M1354.41,1372.87v32.37c0,2.89,4.5,5.26,10,5.26h111.53c5.5,0,10-2.37,10-5.26v-32.37c0-2.89-4.5-5.26-10-5.26
		h-8.96c0-0.03,0.01-0.06,0.01-0.1V911.98c0-0.32-0.02-0.64-0.06-0.95h9.01c5.5,0,10-2.37,10-5.26V873.4c0-2.89-4.5-5.26-10-5.26
		h-111.53c-5.5,0-10,2.37-10,5.26v32.37c0,2.89,4.5,5.26,10,5.26h9.01c-0.04,0.31-0.06,0.63-0.06,0.95v455.54
		c0,0.03,0.01,0.06,0.01,0.1h-8.96C1358.91,1367.62,1354.41,1369.98,1354.41,1372.87z"/>
	<path class="st0" d="M1072.96,1372.87v32.37c0,2.89,4.5,5.26,10,5.26h111.53c5.5,0,10-2.37,10-5.26v-32.37c0-2.89-4.5-5.26-10-5.26
		h-8.96c0-0.03,0.01-0.06,0.01-0.1V911.98c0-0.32-0.02-0.64-0.06-0.95h9.01c5.5,0,10-2.37,10-5.26V873.4c0-2.89-4.5-5.26-10-5.26
		h-111.53c-5.5,0-10,2.37-10,5.26v32.37c0,2.89,4.5,5.26,10,5.26h9.01c-0.04,0.31-0.06,0.63-0.06,0.95v455.54
		c0,0.03,0.01,0.06,0.01,0.1h-8.96C1077.46,1367.62,1072.96,1369.98,1072.96,1372.87z"/>
	<path class="st0" d="M795.51,1372.87v32.37c0,2.89,4.5,5.26,10,5.26h111.53c5.5,0,10-2.37,10-5.26v-32.37c0-2.89-4.5-5.26-10-5.26
		h-8.96c0-0.03,0.01-0.06,0.01-0.1V911.98c0-0.32-0.02-0.64-0.06-0.95h9.01c5.5,0,10-2.37,10-5.26V873.4c0-2.89-4.5-5.26-10-5.26
		H805.51c-5.5,0-10,2.37-10,5.26v32.37c0,2.89,4.5,5.26,10,5.26h9.01c-0.04,0.31-0.06,0.63-0.06,0.95v455.54
		c0,0.03,0.01,0.06,0.01,0.1h-8.96C800.01,1367.62,795.51,1369.98,795.51,1372.87z"/>
	<path class="st0" d="M514.05,1372.87v32.37c0,2.89,4.5,5.26,10,5.26h111.53c5.5,0,10-2.37,10-5.26v-32.37c0-2.89-4.5-5.26-10-5.26
		h-8.96c0-0.03,0.01-0.06,0.01-0.1V911.98c0-0.32-0.02-0.64-0.06-0.95h9.01c5.5,0,10-2.37,10-5.26V873.4c0-2.89-4.5-5.26-10-5.26
		H524.05c-5.5,0-10,2.37-10,5.26v32.37c0,2.89,4.5,5.26,10,5.26h9.01c-0.04,0.31-0.06,0.63-0.06,0.95v455.54
		c0,0.03,0.01,0.06,0.01,0.1h-8.96C518.55,1367.62,514.05,1369.98,514.05,1372.87z"/>
	<path class="st0" d="M1525.86,729.38H474.14c-5.5,0-10,4.9-10,10.9v70.8c0,5.99,4.5,10.9,10,10.9h1051.73c5.5,0,10-4.9,10-10.9
		v-70.8C1535.86,734.29,1531.36,729.38,1525.86,729.38z"/>
	<path class="st0" d="M514.05,1501.68c0,3.41,4.08,6.2,9.06,6.2h952.87c4.98,0,9.06-2.79,9.06-6.2v-39.03c0-3.41-4.08-6.2-9.06-6.2
		H523.11c-4.98,0-9.06,2.79-9.06,6.2V1501.68z"/>
	<path class="st0" d="M1525.86,1552.82H474.14c-5.5,0-10,2.79-10,6.2v39.03c0,3.41,4.5,6.2,10,6.2h1051.73c5.5,0,10-2.79,10-6.2
		v-39.03C1535.86,1555.61,1531.36,1552.82,1525.86,1552.82z"/>
</g>
</svg>
